<svg width="15" height="15" viewBox="0 0 15 15" fill="none" xmlns="http://www.w3.org/2000/svg">
<g clip-path="url(#clip0_102_2)">
<path d="M3.61087 13.5106L13.5104 3.61106C14.0962 3.02527 14.0962 2.07552 13.5104 1.48974C12.9246 0.903951 11.9748 0.903951 11.389 1.48974L1.48955 11.3892C0.903766 11.975 0.903766 12.9248 1.48955 13.5106C2.07534 14.0963 3.02509 14.0963 3.61087 13.5106Z" fill="white"/>
<path d="M13.5104 11.3892L3.61094 1.48969C3.02515 0.903907 2.0754 0.903907 1.48962 1.48969C0.903829 2.07548 0.903829 3.02523 1.48962 3.61101L11.3891 13.5105C11.9749 14.0963 12.9246 14.0963 13.5104 13.5105C14.0962 12.9247 14.0962 11.975 13.5104 11.3892Z" fill="white"/>
</g>
<defs>
<clipPath id="clip0_102_2">
<rect width="15" height="15" fill="white"/>
</clipPath>
</defs>
</svg>
